<svg width="1920" height="928" viewBox="0 0 1920 928" fill="none" xmlns="http://www.w3.org/2000/svg">
<rect width="1920" height="920" fill="#F0EFEF"/>
<path d="M10.0781 708.229C31.583 748.503 81.6644 763.718 121.938 742.213C162.212 720.708 177.427 670.627 155.922 630.353C134.417 590.079 84.3356 574.864 44.0619 596.369C3.78826 617.874 -11.4268 667.956 10.0781 708.229ZM831.565 293.729C853.069 334.003 903.151 349.218 943.425 327.713C983.698 306.208 998.913 256.127 977.408 215.853C955.903 175.579 905.822 160.364 865.548 181.869C825.275 203.374 810.06 253.456 831.565 293.729ZM89.9824 683.129L911.469 268.629L897.504 240.953L76.0176 655.453L89.9824 683.129Z" fill="#4285EA"/>
<path d="M1326.21 237.643L1251.88 350.001L1364.23 424.336L1438.57 311.978L1326.21 237.643ZM1329.06 334.283L1449.83 927.293L1482.17 920.707L1361.39 327.697L1329.06 334.283Z" fill="#DAAC36"/>
</svg>
