<svg width="2215" height="1088" viewBox="0 0 2215 1088" fill="none" xmlns="http://www.w3.org/2000/svg">
<rect x="159" width="1920" height="920" fill="#F0EFEF"/>
<path d="M169.078 708.229C190.583 748.503 240.664 763.718 280.938 742.213C321.212 720.708 336.427 670.627 314.922 630.353C293.417 590.079 243.336 574.864 203.062 596.369C162.788 617.874 147.573 667.956 169.078 708.229ZM990.565 293.729C1012.07 334.003 1062.15 349.218 1102.42 327.713C1142.7 306.208 1157.91 256.127 1136.41 215.853C1114.9 175.579 1064.82 160.364 1024.55 181.869C984.275 203.374 969.06 253.456 990.565 293.729ZM248.982 683.129L1070.47 268.629L1056.5 240.953L235.018 655.453L248.982 683.129Z" fill="#4285EA"/>
<path d="M1107.5 430L2066.62 923.5H148.377L1107.5 430Z" fill="#E3E3E3"/>
<path d="M1485.21 237.643L1410.88 350.001L1523.23 424.336L1597.57 311.978L1485.21 237.643ZM1488.06 334.283L1608.83 927.293L1641.17 920.707L1520.39 327.697L1488.06 334.283Z" fill="#DAAC36"/>
</svg>
